<mxfile host="app.diagrams.net" modified="2024-02-28T19:10:01.656Z" agent="Mozilla/5.0 (Macintosh; Intel Mac OS X 10_15_7) AppleWebKit/537.36 (KHTML, like Gecko) Chrome/121.0.0.0 Safari/537.36" version="23.1.8" etag="pQKHWU_arE3nbuNxWi0j" type="github">
  <diagram name="‫עמוד-1‬" id="KyWAYJ6wmILwRl8__2L3">
    <mxGraphModel>
      <root>
        <mxCell id="0" />
        <mxCell id="1" parent="0" />
      </root>
    </mxGraphModel>
  </diagram>
</mxfile>
